<svg id="Layer_1" data-name="Layer 1" xmlns="http://www.w3.org/2000/svg" viewBox="0 0 305.85 289.77"><defs><style>.cls-1{fill:#09a8be;}.cls-2{fill:#f36c33;}.cls-3{fill:#8e8d8d;}.cls-4{fill:#a09f9f;}.cls-5{fill:#bfd963;}</style></defs><title>fgb-logo</title><path class="cls-1" d="M307.68,104.06c.87-4.46,1.44-12.1-2.39-15.53-6.47-5.81-17.77,3.22-15.2,10.94,1.5,4.51,4.52,6.58,9.07,7.57a13.59,13.59,0,0,1-8.11,9c-6.16,2.48-13.46,2-13.55-4.55-.14-9.07,2.33-20.89-2-29.39-3.85-7.6-16.48-10.72-24.83-9.15-6.21,1.16-18.48,8.83-18.13,15.87-.15-3.1,3-13.07.12-14.9-1.75-1.11-6.92-.8-10.17-.8-3.51,0-2.45,7.83-2.29,10.88.43,8.26-2.61,21.32-10.36,28.34-5.87,5.3-21.66,10.38-27.44,2.08-5.46-7.86-1.38-20.78.55-29.19.78-3.42,5.54-12.5-1.08-12.5s-11.67-1.47-12.32,4.24c-1.15,10.13-.05,21.08-6.43,29.82-5.09,7-16.44,15.33-24.24,8.67-5.73-4.89-5.87-13.39-5-20.21a73.1,73.1,0,0,1,2.46-11.61c.57-2,3.57-8.08,2.15-9.85-.74-.91-3.53-.75-4.58-.82-4.62-.3-9.61-.72-10.55,4.42-.75,4.11.89,9.82-3.93,12.22-8.67,4.3-30.66,4.79-40.09,4.47C78.39,94,74.41,55.31,83,36.5c3.85-8.44,10.48-19.2,20-22.21,14.3-4.5,20.13,12.3,23,22,.21.69-22.64,15.6-10.58,26.89,4.79,4.5,13.39.22,16.16-6.2,8.67-20.13-5.18-53.45-30.13-52.73-18.87.55-33.09,19.67-38.1,40.37-5.7,23.5-.64,48.94-.48,49.7S53.68,96.12,53,96.23c-9,1.45-17.18,4.88-23.62,11.51-3.59,3.7-7.27,9.54-7.7,14.89-.22,2.83.37,5.43,2.73,7.2,1,.75,6.81,3.12,6.73.35a25.83,25.83,0,0,1,7.68-19.44c8.13-7.66,26.05-8.44,26.26-7.75,1.53,4.9,2.77,9.61,4,14.59,5.28,21.56,11,49,.92,69.94C64,199.82,48.24,209.27,34.58,204.3c-20.3-7.38-14.44-34.13-5.51-48,2.82-4.37-21.56-3.41-22.24,3-2.36,22.23,2,45.57,25.4,55,8.84,3.56,18.62,2.72,27.87-.49,16-5.57,27.74-26.86,29.48-41.79,2.72-23.27-.45-33.72-5.49-56.28-.9-4.07-3.4-13.79-3.06-13.8,6-.29,36.22-1,40.33-5.63a89.58,89.58,0,0,0,.64,10.78c4.55,38,47.58,7.67,48.16-1,1,5.89,1.47,13.38,6.81,17.28,11.27,8.23,36.67-.19,42.91-12.17.07,2.88-2.08,11.65-.1,13.89s8.29,1,10.83.67c.56-.08,2,.21,2-.7,0-2.39.08-15.33.14-17.72.22-9.11,5.34-16.8,11.44-22.65,6.86-6.59,14.86-7,21,.83,8.34,10.71-6.74,38.68,10.8,40.24,11,1,22.87-5.44,28.94-14.47A20.47,20.47,0,0,0,307.68,104.06ZM122.13,57.93a2,2,0,0,1-2.22-1.39,8.64,8.64,0,0,1-.18-5.48c1.29-3.49,6.32-5.36,6.15-6.35C127.35,47.89,127.48,56.82,122.13,57.93Zm179.25,44.39a31.23,31.23,0,0,1-3.55-1.42c-2.41-1.3-2.9-6.37-.27-7.77C302.54,90.5,303,99.81,301.38,102.32Z" transform="translate(-4.6 -4.23)"/><path class="cls-2" d="M124.11,268.11c-.11-8.29,0-21,0-29.31,0-3.11-14.63-1-22-1,6.79,0,24.55-12.28,18.8-19.54s-15.65-3-20.18,3.12c-.75,1-3.77,4.47-3,5.92-.36-.65-5.94-14.07-15-12.44-3.57.65-5.47,2.29-6.61,4.92-2.65,6.1,1.32,10.64,6.66,14,2,1.28,5.64,2.83,7.74,4-.06.22-1.55-.13-1.62.09l-16.81-.76c-.91.86-1,14.35-1,20.4-.06,11.09.06,22.18.17,33.28,0,1.41.5,2.49,2.4,2.47,2.44,0,4.89.41,7.33.42,13.07.11,26.14.1,39.2.27,2.07,0,4.36-.08,4.34-1.11C124.38,286.08,124.19,274.9,124.11,268.11Zm-23.27-40a13.48,13.48,0,0,1,5.52-7.21c2.44-1.55,8.54-3.85,10.7-.91,4.76,6.53-15.32,15.15-16.62,15.75S100.61,228.79,100.84,228.13Zm-20.57-1.55c-2-5.22,3.35-10.28,8.76-5.83,3.87,3.18,6.46,10.34,6.58,15.2C91.1,234.57,82.2,231.7,80.27,226.58Zm31.56,53.82.17,2.27-2.27.25a117.25,117.25,0,0,1-12.87.67A105.6,105.6,0,0,1,84.6,283l-1.88-.24-.21-1.88c-.89-8.75-.67-22.49,0-31l3.74.29,0-.1a96.62,96.62,0,0,0,22.56-.2l2.21-.28.41,2.2c1,5.32.72,11.36.48,17.19A107.92,107.92,0,0,0,111.83,280.4Zm-24.9-25.54a214.58,214.58,0,0,0,.14,23.58,118.28,118.28,0,0,0,19.92,0c-.08-3.14.06-6.46.18-9.69a91.21,91.21,0,0,0-.09-14A100.62,100.62,0,0,1,86.93,254.86Z" transform="translate(-4.6 -4.23)"/><path class="cls-3" d="M45.61,258C53,259.2,59.5,265.32,60,272.27c.52,6.71-4,13.31-10,16.91-10.92,6.6-26.25,4-38.64,3.66-1.35,0-4-.22-5.36-.22-1.57,0-1.48-3.8-1.38-7.6.35-13-.67-56.41.44-56.61A112.34,112.34,0,0,1,34,227.17c7.29.62,15.81,2.05,19.06,8.92C56.72,243.94,52.23,252.75,45.61,258ZM18.47,277.59c0,1.68.18,3.07.83,3.26,4.47,1.3,12.74,1,17-1a9,9,0,0,0,4.86-6.95c.38-6.85-18-8.15-22.43-6C18,267.28,18.49,274.93,18.47,277.59Zm.24-22c6.51,2.39,24.55-.35,20.92-10.51-2.37-6.63-11.37-4.89-16.33-5.06-1.79-.06-3.57-.61-4.35,1.09C18.4,242.32,18.1,252.54,18.71,255.61Z" transform="translate(-4.6 -4.23)"/><path class="cls-3" d="M205.05,293.23c-1,1.12-18.15.93-19.15,0-3.34-3.15-15.13-19.47-15.56-19.76-4.08,4.84-12.59,20.4-14.78,20.31-4.43-.17-12.95-.36-17.39-.36-2.53,0-1-1.21.31-3.48s16-24.27,21-30.49c1-1.18,1-1,0-2.18-5.13-5.95-7.71-8.23-12.62-14.35-3.16-3.94-6.86-8.33-9.68-12.53-1.47-2.2-2.35-3.6.19-3.53,4.84.16,7.4.07,12.24.19,1.49,0,3.3-.34,4.79-.19,2.87,3.63,5.67,7,8.4,10.34,5.67,6.9,11,13.4,16.89,21.61,4.78,6.7,9.78,13.24,14.6,19.92C194.94,279.63,205.21,293.06,205.05,293.23Z" transform="translate(-4.6 -4.23)"/><path class="cls-4" d="M183.44,255.89c-3.25-4.55-6.36-8.58-9.42-12.43,2.8-3.93,7.21-10.53,9.32-15.49.48-1.14,5.17-.69,6.31-.73,3.85-.15,16.59-1.52,15.21,1.11s-6.79,8-8.68,10.56C191.12,245.69,188.28,249.63,183.44,255.89Z" transform="translate(-4.6 -4.23)"/><path class="cls-5" d="M139.72,187.61c-2.25.26-10.31-.26-12,.16-2.75.7-3-.58-3-2.39a29.7,29.7,0,0,0-.25-4.9c-.28-2.4,1.12-3.36,4-3.4,5.67-.09,12.45,0,18.11-.38,4-.28,4.48.15,5.2,3.56,1.31,6.25,1.2,12.38-1.46,18.34-2.88,6.5-7.25,11.14-15.38,12.42a38.92,38.92,0,0,1-14.38-.42c-9-2.13-19.33-9.87-19.91-23.9-.44-10.55.65-24.88,5.82-34.51,4.21-7.84,9.26-13.53,20.11-15,8.89-1.19,18.24,2.41,21.58,10,2.57,5.86,4.9,15.15,1.66,18.55-.93,1-13.61,1.36-14.8.46-2.55-1.93,1.66-13.2-5.69-12.54-14.78,1.32-18.84,40-1.8,43.52C135.1,198.77,139.72,192.11,139.72,187.61Z" transform="translate(-4.6 -4.23)"/><path class="cls-3" d="M247.63,254.67a.78.78,0,0,1,.91.75c0,4.5,0,6.76-.12,11a2,2,0,0,1-1.32,1.36,22.5,22.5,0,0,1-4.56.42c-2.18,0-8.33-.18-10.76-.3-.43,0,0,10.21,0,10.21-1.38,2.31,11.42.09,15.25,0a87.53,87.53,0,0,1,8.87-.11,2,2,0,0,1,1.79,1.73c.31,4.61.27,8.1.55,13.06a.8.8,0,0,1-.82.81c-2.67,0-6.44-.05-8.34-.18-5.67-.37-8.65.66-14.33.35-4-.21-11,.36-15,.2a4.07,4.07,0,0,1-4-4c.07-5.72-.14-11.44-.15-17.17,0-5.42,0-10.84.19-16.26.18-5.82-.57-9.39-.46-15.22,0-2.44.42-7.15.56-9.57.06-1.05-.49-3.49.58-3.75,3.11-.75,11.4-1,14.6-1.08,3-.12,19.28.26,24.39.16.18,0,.36,0,.54,0,4,.19,4.44-.56,4.41,3.35,0,2.13.15,6.79.4,8.9.5,4.32-2.5,3.24-6.22,3.32-5.95.12-22.53.07-22.58.58-.18,2.1,0,8.32,0,11C232,254.69,247.63,254.67,247.63,254.67Z" transform="translate(-4.6 -4.23)"/><path class="cls-3" d="M309.65,248.21c-.47,1.62-8.1,1-11.15,1-3.39,0-.69-7.64-6.55-8.42-5.11-.67-8.56,5.11-4.93,8.45,9.51,8.8,29.46,18.09,21.66,33.35-5.34,10.45-21.19,13.81-31.76,8.51-3.76-1.88-6.1-5.28-7.74-8.84-1.16-2.51-4.07-8.37-1.1-10.57,1.1-.82,3.83-.67,5.13-.73,2.56-.11,5.26-.65,7,1.59,1,1.24.74,2.81,2,4,3.21,3.05,7.43,1.84,9.63-1.58,3.25-5.06-1.79-9.22-5.91-11.9-5.32-3.47-10.24-6.27-14.43-11-5-5.72-2.5-12.19,2.14-17.39,6.44-7.22,17.32-9.13,26.48-5.48,4.27,1.71,6,4.43,8.15,8.29C309.55,239.77,310.37,245.71,309.65,248.21Z" transform="translate(-4.6 -4.23)"/><path class="cls-5" d="M199.14,211.11c-1.86,0-6.39.38-8.24.31-2.94-.12-1.68-2.13-1.49-4.71a65.69,65.69,0,0,0,.21-9.3c-.7-10.23.82-20.44.26-30.67-.4-7.11-2.18-20.91-2.18-28,0-3.46,27.68-.4,40.08-1.4,3.73-.3,9.87-1.13,9.7,2.3,0,1,.55,7.16-.08,11.09a3,3,0,0,1-2.65,2.39c-6.1.88-21.34.2-27.05.65-1.85.15-2.78.94-2.39,2.76a11.84,11.84,0,0,1-.11,2.71c-.1,3.61-.78,6.56,3.67,6.33s14.61-.71,19-1.22c2.07-.24,4.22-1.08,4.47.57a66.36,66.36,0,0,1,0,10.92c-.65,3.44-6.4,3.41-11.58,3-4.73-.38-9.57.19-14.35.53-.59,0-.81,1.3-.75,1.88.7,6.55.77,13,1.59,19.55.32,2.49.73,5,.89,7.46.12,1.77-.94,2.94-3.08,3-2,.06-3.93,0-5.89,0Z" transform="translate(-4.6 -4.23)"/><path class="cls-5" d="M286.16,153.71c-1.63.23,0,33.07.12,35.62.22,5.51.5,11.2.53,16.72,0,1.15.51,3.56-.1,4.62-1.07,1.87-9.26,1.33-12,1.25-3.36-.09-6,.05-5.32-2.76a23.19,23.19,0,0,0,.67-5.79c-.71-12.14.45-25.44-.36-37.59-.26-3.87.12-12-.53-12-5,.47-14.91-.56-20.31-.18-5.78.4-3.84-10.3-4.1-13.23-.44-4.72,9.92-3.09,15.1-3.17,11.13-.17,22.26-.19,33.39-.21l12.61,0c3,0,3.9,1.11,3.72,3.66-.2,2.77,2.47,12.9-3.46,13s-12,0-17.94,0C287.61,153.63,287,153.67,286.16,153.71Z" transform="translate(-4.6 -4.23)"/><path class="cls-5" d="M177,211.64c-.77.55-12.75,0-17.05,0-2.54,0-1.15-2.59-1-4.13a291.5,291.5,0,0,0,1.91-37.67c-.08-5.34-1.38-25.89-2.86-30.64-.69-2.21,18.81-2.41,20.06-.56s.06,5.53-.09,7.63c-1.36,18.38-2.79,36.43-.93,54.85.21,2.11.76,5,.81,7.13C177.94,209.78,177.66,211.2,177,211.64Z" transform="translate(-4.6 -4.23)"/></svg>