<?xml version="1.0" encoding="utf-8"?>
<!-- Generator: Adobe Illustrator 23.0.1, SVG Export Plug-In . SVG Version: 6.00 Build 0)  -->
<svg version="1.1" id="Layer_1" xmlns="http://www.w3.org/2000/svg" xmlns:xlink="http://www.w3.org/1999/xlink" x="0px" y="0px"
	 viewBox="0 0 1200 1200" style="enable-background:new 0 0 1200 1200;" xml:space="preserve">
<style type="text/css">
	.st0{fill:#F36C33;}
	.st1{fill:none;stroke:#F36C33;stroke-width:24.4044;stroke-miterlimit:10;}
</style>
<title>icon-instagram</title>
<path class="st0" d="M759.1,934.3H443.9c-97-0.1-175.5-78.7-175.6-175.7V442.8c0.1-96.9,78.7-175.5,175.6-175.6h315.2
	c96.9,0.1,175.5,78.7,175.6,175.6v315.3c0.2,97.1-78.4,176-175.5,176.2C759.2,934.3,759.1,934.3,759.1,934.3z M443.9,330.1
	c-62.4,0.1-113,50.7-113.1,113.1v315.3c0.1,62.4,50.7,113,113.1,113.1h315.2c62.4-0.1,113-50.7,113.1-113.1V442.8
	c-0.1-62.4-50.7-113-113.1-113.1L443.9,330.1z"/>
<path class="st0" d="M601.4,769.1c-95.6,0.1-173.2-77.4-173.3-173c-0.1-95.6,77.4-173.2,173-173.3c95.6-0.1,173.2,77.4,173.3,173
	c0,0,0,0.1,0,0.1C774.5,691.5,697,769,601.4,769.1z M601.4,485.5c-61.1,0-110.6,49.5-110.5,110.6c0,61.1,49.5,110.6,110.6,110.5
	c61.1,0,110.6-49.5,110.5-110.6c0-0.2,0-0.5,0-0.7C711.6,534.5,662.2,485.5,601.4,485.5z"/>
<circle class="st0" cx="783.9" cy="416.1" r="42.1"/>
<circle class="st1" cx="601.6" cy="600.4" r="578.5"/>
</svg>
