<?xml version="1.0" encoding="utf-8"?>
<!-- Generator: Adobe Illustrator 23.0.1, SVG Export Plug-In . SVG Version: 6.00 Build 0)  -->
<svg version="1.1" id="Ñëîé_1" xmlns="http://www.w3.org/2000/svg" xmlns:xlink="http://www.w3.org/1999/xlink" x="0px" y="0px"
	 viewBox="0 0 590 590" style="enable-background:new 0 0 590 590;" xml:space="preserve">
<style type="text/css">
	.st0{fill-rule:evenodd;clip-rule:evenodd;fill:#6A6A6A;}
</style>
<title>icon-search</title>
<path class="st0" d="M364.4,13c-112.9-0.2-204.5,91.2-204.6,204.1c-0.1,38.8,10.9,76.8,31.7,109.6L23.3,490.5l68.2,68.2l169.3-165
	c97.3,57.3,222.7,24.8,280-72.6c57.3-97.3,24.8-222.7-72.6-280C436.7,22.7,400.9,13,364.4,13z M364.4,340.5
	c-67.8,0-122.8-55-122.8-122.8c0-67.8,55-122.8,122.8-122.8c67.8,0,122.8,55,122.8,122.8C487,285.3,432,340.1,364.4,340V340.5z"/>
</svg>
