<?xml version="1.0" encoding="utf-8"?>
<!-- Generator: Adobe Illustrator 23.0.1, SVG Export Plug-In . SVG Version: 6.00 Build 0)  -->
<svg version="1.1" id="Ñëîé_1" xmlns="http://www.w3.org/2000/svg" xmlns:xlink="http://www.w3.org/1999/xlink" x="0px" y="0px"
	 viewBox="0 0 590 590" style="enable-background:new 0 0 590 590;" xml:space="preserve">
<style type="text/css">
	.st0{fill:#00A8BE;}
</style>
<title>icon-carot-down</title>
<polygon class="st0" points="294.4,98.2 549.9,368.9 510.2,368.9 294.4,140.1 78.1,368.9 38.2,368.9 "/>
<path class="st0" d="M272.9,119.5l256.2,270.7l21.3-51.6c-6.9,0-47.5-3-27.1,4c16.6,5.8,0.9-1.9-4.5-9.4
	c-23.6-28.2-49.1-54.7-76.3-79.5L315,118.8c-11.9-11.9-31.3-12-43.2,0c0,0,0,0,0,0l-127.7,135c-23.9,25.2-50.6,49.5-72.1,76.6
	c-4.5,6.1-9.7,11.6-15.6,16.4c25.1-17.2,3-8.2-18.9-8.2L59,390.3l256.7-270.7c26.8-28.8-15.9-71.1-43.3-43.3L16.9,347.4
	c-11.6,12.4-11.1,31.8,1.3,43.4c5.6,5.2,12.9,8.2,20.5,8.4c67.9,0,85-34,130.8-82.5l146.3-155.1h-43.3l146.8,155.1
	c45.6,48.3,62.9,82.5,129.8,82.5c17-0.5,30.3-14.6,29.8-31.6c-0.2-7.5-3.2-14.7-8.4-20.2L315.8,76.7
	C289.1,48.3,246.2,91.3,272.9,119.5z"/>
</svg>
