<?xml version="1.0" encoding="utf-8"?>
<!-- Generator: Adobe Illustrator 23.0.1, SVG Export Plug-In . SVG Version: 6.00 Build 0)  -->
<svg version="1.1" id="Ñëîé_1" xmlns="http://www.w3.org/2000/svg" xmlns:xlink="http://www.w3.org/1999/xlink" x="0px" y="0px"
	 viewBox="0 0 590 590" style="enable-background:new 0 0 590 590;" xml:space="preserve">
<style type="text/css">
	.st0{fill-rule:evenodd;clip-rule:evenodd;fill:#6A6A6A;}
</style>
<title>icon-cart</title>
<path class="st0" d="M152,455.2c-28.9-0.1-52.3,23.2-52.4,52.1c-0.1,28.9,23.2,52.3,52.1,52.4c28.9,0.1,52.3-23.2,52.4-52.1
	c0-0.1,0-0.1,0-0.2C204.1,478.7,180.8,455.3,152,455.2z"/>
<path class="st0" d="M395.5,455.2c-28.9-0.1-52.3,23.2-52.4,52.1c-0.1,28.9,23.2,52.3,52.1,52.4c28.9,0.1,52.3-23.2,52.4-52.1
	c0-0.1,0-0.1,0-0.2C447.6,478.7,424.3,455.3,395.5,455.2z"/>
<path class="st0" d="M134.6,177V72.7H30.3v34.8h69.6v313h347.8L552,177.7L134.6,177z M169.4,385.6h-34.8V211.8h34.8V385.6z
	 M239,385.6h-35V211.8h34.8L239,385.6z M308.6,385.6h-34.8V211.8h34.8L308.6,385.6z M378.2,385.6h-35V211.8h35V385.6z M413,385.6
	V211.8h34.6v113.3L413,385.6z"/>
</svg>
