<?xml version="1.0" encoding="utf-8"?>
<!-- Generator: Adobe Illustrator 23.0.1, SVG Export Plug-In . SVG Version: 6.00 Build 0)  -->
<svg version="1.1" id="Ñëîé_1" xmlns="http://www.w3.org/2000/svg" xmlns:xlink="http://www.w3.org/1999/xlink" x="0px" y="0px"
	 viewBox="0 0 590 590" style="enable-background:new 0 0 590 590;" xml:space="preserve">
<style type="text/css">
	.st0{fill-rule:evenodd;clip-rule:evenodd;fill:#F36C35;}
</style>
<title>icon-email</title>
<path class="st0" d="M27.2,468.4l178.1-177.3L27.2,112.6C13.8,126,6.2,144.1,6,163.1v253.2C5.8,435.8,13.4,454.6,27.2,468.4z"/>
<path class="st0" d="M296.3,344.6L542.4,98.3c-9.3-4.3-19.5-6.6-29.8-6.6h-434c-10.2,0-20.3,2.2-29.6,6.6L296.3,344.6z"/>
<polygon class="st0" points="368,308.4 368,308.4 368.3,308.2 "/>
<path class="st0" d="M368.2,308.4L368.2,308.4l-72.3,72.3l-72.3-72.3L49.1,482.8c9.3,4.2,19.4,6.4,29.6,6.4h434
	c10.3,0,20.4-2.2,29.8-6.4L368.2,308.4z"/>
<path class="st0" d="M386.5,290.1l177.3,178.3c13.4-13.4,21-31.5,21.2-50.5V163.7c-0.1-19-7.8-37.1-21.2-50.5L386.5,290.1z"/>
</svg>
