<?xml version="1.0" encoding="utf-8"?>
<!-- Generator: Adobe Illustrator 23.0.1, SVG Export Plug-In . SVG Version: 6.00 Build 0)  -->
<svg version="1.1" id="Ñëîé_1" xmlns="http://www.w3.org/2000/svg" xmlns:xlink="http://www.w3.org/1999/xlink" x="0px" y="0px"
	 viewBox="0 0 590 590" style="enable-background:new 0 0 590 590;" xml:space="preserve">
<style type="text/css">
	.st0{fill:#00A8BE;}
</style>
<title>icon-carot-down</title>
<polygon class="st0" points="293.1,368.2 37.7,97.4 77.3,97.4 293.1,326.2 509.5,97.4 549.3,97.4 "/>
<path class="st0" d="M314.6,346.8L58.4,76.1l-21.3,51.6c6.9,0,47.5,3,27.1-4c-16.6-5.8-0.9,1.9,4.5,9.4
	c23.6,28.2,49.1,54.7,76.3,79.5l127.5,135c11.9,11.9,31.3,12,43.2,0c0,0,0,0,0,0l127.7-135c23.9-25.2,50.6-49.5,72.1-76.6
	c4.5-6.1,9.7-11.6,15.6-16.4c-25.1,17.2-3,8.2,18.9,8.2l-21.5-51.6L271.8,346.8c-26.8,28.8,15.9,71.1,43.3,43.3l255.6-271.2
	c11.6-12.4,11.1-31.8-1.3-43.4c-5.6-5.2-12.9-8.2-20.5-8.4c-67.9,0-85,34-130.8,82.5L271.8,304.7H315L168.2,149.7
	c-45.6-48.3-62.9-82.5-129.8-82.5c-17,0.5-30.3,14.6-29.8,31.6c0.2,7.5,3.2,14.7,8.4,20.2l254.9,270.7
	C298.5,418.1,341.3,375.1,314.6,346.8z"/>
</svg>
