<?xml version="1.0" encoding="utf-8"?>
<!-- Generator: Adobe Illustrator 23.0.1, SVG Export Plug-In . SVG Version: 6.00 Build 0)  -->
<svg version="1.1" id="Ñëîé_1" xmlns="http://www.w3.org/2000/svg" xmlns:xlink="http://www.w3.org/1999/xlink" x="0px" y="0px"
	 viewBox="0 0 590 590" style="enable-background:new 0 0 590 590;" xml:space="preserve">
<style type="text/css">
	.st0{fill-rule:evenodd;clip-rule:evenodd;fill:#F36C35;}
</style>
<title>icon-phone</title>
<path class="st0" d="M395.7,7H175.2c-39.7,0-71.9,32.2-71.9,71.9v431.2c-0.1,39.6,31.9,71.8,71.5,71.9c0.1,0,0.2,0,0.3,0h220.5
	c39.6,0.1,71.8-31.9,71.9-71.5c0-0.1,0-0.2,0-0.3V79c0.1-39.7-32-71.9-71.7-72C395.8,7,395.7,7,395.7,7z M286,538.7
	c-30.1,0-54.5,4.5-54.5-10.5s24.4-10.5,54.5-10.5c30.1,0,54.7-4.7,54.7,10.5S315.6,538.7,286,538.7z M396.4,507.6H175.2V79h220.5
	L396.4,507.6z"/>
</svg>
